#!OML:ASF H:\LiuWeirdWalks\Patient Classification 1\Patient 1\Session 1\male.ASF
:FULLY-SPECIFIED
:DEGREES
647
root 1.69901 17.8291 35.3283 2.28975 3.86557 6.68486
lowerback 6.00839 -6.49087 -17.0065
upperback -2.20542 -9.91094 4.1638
thorax -2.15925 -4.63878 14.6237
lowerneck -18.1444 1.50859 4.75113
upperneck 26.3138 1.98327 -4.73839
head 11.7087 0.735858 -2.27116
rclavicle -8.55768e-014 -4.85035e-014
rhumerus -49.4429 -15.4159 -45.9775
rradius 37.2496
rwrist -0.680721
rhand -13.0006 0.417429
rfingers 7.12502
rthumb 13.0927 -29.1516
lclavicle -8.55768e-014 -4.85035e-014
lhumerus -8.18023 -13.0557 78.1843
lradius 47.0031
lwrist 8.66401
lhand -16.1957 -8.3766
lfingers 7.12502
lthumb 10.0114 21.3653
rfemur -29.0832 -5.58098 15.0073
rtibia 36.6357
rfoot 1.55692 -16.4046
rtoes 9.03886
lfemur 9.96453 -2.30088 -26.4841
ltibia 16.6637
lfoot -7.51617 13.361
ltoes -20.8372
648
root 1.67251 17.8335 35.4256 2.25373 3.67242 6.31648
lowerback 5.99712 -6.60791 -16.8394
upperback -2.16368 -10.0451 4.36848
thorax -2.04444 -4.72729 14.7494
lowerneck -18.1288 1.66848 4.919
upperneck 26.1669 2.23975 -5.02606
head 11.6697 0.830832 -2.36544
rclavicle -3.84151e-014 2.46493e-014
rhumerus -49.5833 -15.5453 -45.5141
rradius 36.4868
rwrist -0.433145
rhand -12.7064 0.107468
rfingers 7.12502
rthumb 13.3762 -29.4431
lclavicle -3.84151e-014 2.46493e-014
lhumerus -8.33244 -12.2856 78.4587
lradius 47.5321
lwrist 8.94431
lhand -16.4433 -8.61641
lfingers 7.12502
lthumb 9.77244 21.1368
rfemur -28.8386 -5.67026 15.5526
rtibia 36.7716
rfoot 1.08035 -16.1568
rtoes 9.12111
lfemur 9.76075 -2.35206 -26.0498
ltibia 17.6811
lfoot -7.42503 13.5508
ltoes -21.1594
649
root 1.64523 17.839 35.5223 2.19951 3.49685 6.03055
lowerback 5.98651 -6.74882 -16.828
upperback -2.09493 -10.2231 4.57246
thorax -1.85894 -4.84513 14.9574
lowerneck -18.095 1.87033 5.14366
upperneck 25.9835 2.54909 -5.35398
head 11.6194 0.950658 -2.47553
rclavicle -9.94917e-014 -3.18055e-015
rhumerus -49.5901 -15.6776 -45.1234
rradius 35.7138
rwrist -0.199851
rhand -12.3626 -0.257849
rfingers 7.12502
rthumb 13.7075 -29.7864
lclavicle -9.94917e-014 -3.18055e-015
lhumerus -8.54054 -11.4092 78.7418
lradius 48.0602
lwrist 9.15517
lhand -16.6782 -8.81019
lfingers 7.12502
lthumb 9.54579 20.9536
rfemur -28.4994 -5.80906 16.0021
rtibia 36.7713
rfoot 0.650626 -15.8683
rtoes 9.19812
lfemur 9.51905 -2.3802 -25.6938
ltibia 18.7987
lfoot -7.30203 13.6816
ltoes -21.5169
650
root 1.61564 17.8472 35.6204 1.92875 3.3454 5.17018
lowerback 6.08827 -6.7211 -15.9713
upperback -1.96463 -10.1199 4.7793
thorax -1.90769 -4.81334 14.7156
lowerneck -18.1067 1.87337 5.14084
upperneck 25.8782 2.57307 -5.4315
head 11.5838 0.95121 -2.49818
rclavicle 1.02374e-014 1.03368e-014
rhumerus -50.0625 -16.1312 -44.5311
rradius 35.0163
rwrist -0.030657
rhand -12.0329 -0.617958
rfingers 7.12502
rthumb 14.0253 -30.1248
lclavicle 1.02374e-014 1.03368e-014
lhumerus -8.71274 -11.1265 79.1457
lradius 48.549
lwrist 9.42517
lhand -16.9109 -8.96943
lfingers 7.12502
lthumb 9.32135 20.8045
rfemur -27.8257 -5.8398 17.0713
rtibia 36.6105
rfoot 0.231038 -15.6967
rtoes 9.27434
lfemur 9.46088 -2.35435 -24.676
ltibia 19.9814
lfoot -7.20007 13.7118
ltoes -21.8188
651
root 1.58526 17.856 35.7186 1.65609 3.22208 4.37574
lowerback 6.17408 -6.69602 -15.1811
upperback -1.8248 -10.0224 4.96151
thorax -1.92901 -4.78577 14.477
lowerneck -18.1299 1.87424 5.13662
upperneck 25.78 2.58934 -5.49267
head 11.5527 0.950173 -2.51578
rclavicle 4.32854e-014 2.8625e-014
rhumerus -50.521 -16.6286 -43.9575
rradius 34.2917
rwrist 0.149616
rhand -11.7435 -0.917612
rfingers 7.12502
rthumb 14.3041 -30.4049
lclavicle 4.32854e-014 2.8625e-014
lhumerus -8.92942 -10.9195 79.5608
lradius 49.0246
lwrist 9.74588
lhand -17.1679 -9.10511
lfingers 7.12502
lthumb 9.07329 20.6797
rfemur -27.0978 -5.89013 18.0637
rtibia 36.3841
rfoot -0.164984 -15.5502
rtoes 9.3427
lfemur 9.41705 -2.29872 -23.7012
ltibia 21.1354
lfoot -7.03421 13.631
ltoes -22.0872
652
root 1.5581 17.8655 35.8158 1.40501 3.14116 3.72475
lowerback 6.27067 -6.76393 -14.5894
upperback -1.68861 -10.0681 5.12793
thorax -1.88181 -4.83356 14.3276
lowerneck -18.1398 1.98292 5.29513
upperneck 25.6867 2.73624 -5.6483
head 11.5335 1.01215 -2.57664
rclavicle 7.51406e-014 6.36111e-015
rhumerus -50.7662 -17.0036 -43.5739
rradius 33.5537
rwrist 0.339516
rhand -11.5224 -1.05644
rfingers 7.12502
rthumb 14.5172 -30.5285
lclavicle 7.51406e-014 6.36111e-015
lhumerus -9.24474 -10.552 79.8746
lradius 49.4939
lwrist 10.1287
lhand -17.4411 -9.2146
lfingers 7.12502
lthumb 8.80974 20.5815
rfemur -26.3656 -6.05345 18.8933
rtibia 36.1361
rfoot -0.55124 -15.358
rtoes 9.37116
lfemur 9.38887 -2.23783 -22.8699
ltibia 22.2095
lfoot -6.77467 13.4494
ltoes -22.3031
653
root 1.53003 17.8761 35.9124 1.25502 3.05538 3.42017
lowerback 6.27583 -6.8166 -14.3352
upperback -1.59473 -10.1126 5.19867
thorax -1.7947 -4.87522 14.2513
lowerneck -18.1595 2.07161 5.41254
upperneck 25.6331 2.85533 -5.75922
head 11.5287 1.06305 -2.61884
rclavicle -2.02711e-013 7.15625e-015
rhumerus -51.0469 -17.4143 -43.194
rradius 32.8138
rwrist 0.497429
rhand -11.3872 -1.12536
rfingers 7.12502
rthumb 14.6474 -30.588
lclavicle -2.02711e-013 7.15625e-015
lhumerus -9.59796 -10.3201 80.2089
lradius 49.932
lwrist 10.5486
lhand -17.6938 -9.29709
lfingers 7.12502
lthumb 8.56588 20.5092
rfemur -25.7809 -6.2143 19.3444
rtibia 35.9858
rfoot -0.956779 -15.1946
rtoes 9.39144
lfemur 9.33517 -2.15192 -22.3996
ltibia 23.1028
lfoot -6.35724 13.1751
ltoes -22.4882
654
root 1.50237 17.888 36.0079 1.23336 2.96394 3.5394
lowerback 6.17078 -6.86121 -14.4882
upperback -1.55367 -10.1694 5.15598
thorax -1.65442 -4.91774 14.265
lowerneck -18.1978 2.15587 5.52056
upperneck 25.629 2.9653 -5.84726
head 11.5457 1.11147 -2.65333
rclavicle 1.86013e-013 -4.45278e-014
rhumerus -51.3584 -17.838 -42.8384
rradius 32.1127
rwrist 0.596172
rhand -11.2797 -1.12679
rfingers 7.12502
rthumb 14.751 -30.5819
lclavicle 1.86013e-013 -4.45278e-014
lhumerus -9.98193 -10.2081 80.5485
lradius 50.3296
lwrist 10.9914
lhand -17.8972 -9.34914
lfingers 7.12502
lthumb 8.36956 20.465
rfemur -25.3974 -6.39576 19.3318
rtibia 35.9731
rfoot -1.39352 -15.0295
rtoes 9.41201
lfemur 9.23243 -2.04738 -22.3858
ltibia 23.8025
lfoot -5.76769 12.8292
ltoes -22.6128
655
root 1.47408 17.9011 36.1015 1.33928 2.83518 4.04438
lowerback 5.9547 -6.86001 -14.9839
upperback -1.57291 -10.1801 4.99974
thorax -1.49901 -4.92861 14.335
lowerneck -18.2649 2.19302 5.54495
upperneck 25.69 3.01327 -5.85897
head 11.5865 1.13289 -2.65586
rclavicle -1.88845e-014 1.11319e-014
rhumerus -51.7716 -18.2807 -42.4774
rradius 31.4655
rwrist 0.594054
rhand -11.21 -1.13523
rfingers 7.12502
rthumb 14.8181 -30.5854
lclavicle -1.88845e-014 1.11319e-014
lhumerus -10.3813 -10.2869 80.9281
lradius 50.6701
lwrist 11.3537
lhand -18.0319 -9.36214
lfingers 7.12502
lthumb 8.23954 20.4572
rfemur -25.2251 -6.53256 18.8999
rtibia 36.0985
rfoot -1.85396 -14.8925
rtoes 9.43278
lfemur 9.05964 -1.91457 -22.7901
ltibia 24.3358
lfoot -5.00154 12.429
ltoes -22.7163
656
root 1.44518 17.9149 36.1931 1.54641 2.66151 4.86025
lowerback 5.64133 -6.81022 -15.7453
upperback -1.62939 -10.1309 4.74838
thorax -1.32625 -4.90408 14.4389
lowerneck -18.4007 2.17944 5.47869
upperneck 25.8165 2.99532 -5.79698
head 11.6587 1.12401 -2.62682
rclavicle 5.00937e-014 7.15625e-015
rhumerus -52.2712 -18.7575 -42.1174
rradius 30.8608
rwrist 0.503237
rhand -11.1903 -1.09749
rfingers 7.12502
rthumb 14.8371 -30.5463
lclavicle 5.00937e-014 7.15625e-015
lhumerus -10.7579 -10.5473 81.3404
lradius 50.9353
lwrist 11.6113
lhand -18.0276 -9.36245
lfingers 7.12502
lthumb 8.24368 20.4567
rfemur -25.2044 -6.61819 18.1293
rtibia 36.2803
rfoot -2.29834 -14.773
rtoes 9.46635
lfemur 8.7947 -1.75372 -23.5318
ltibia 24.7952
lfoot -4.13964 11.9941
ltoes -22.8008
657
root 1.41572 17.929 36.2828 1.79644 2.45011 5.75098
lowerback 5.28634 -6.71561 -16.5364
upperback -1.71886 -10.0132 4.46273
thorax -1.19487 -4.8377 14.5219
lowerneck -18.5469 2.11075 5.32365
upperneck 25.9962 2.91074 -5.67443
head 11.7467 1.08391 -2.5713
rclavicle -7.85696e-014 -4.69132e-014
rhumerus -52.8612 -19.2442 -41.7407
rradius 30.2701
rwrist 0.354737
rhand -11.2245 -0.969231
rfingers 7.12502
rthumb 14.8042 -30.4204
lclavicle -7.85696e-014 -4.69132e-014
lhumerus -11.1519 -10.9611 81.7978
lradius 51.1311
lwrist 11.7073
lhand -17.8655 -9.34373
lfingers 7.12502
lthumb 8.40018 20.4692
rfemur -25.2523 -6.63224 17.275
rtibia 36.4764
rfoot -2.72167 -14.6918
rtoes 9.51128
lfemur 8.46694 -1.56719 -24.3461
ltibia 25.2368
lfoot -3.22132 11.5179
ltoes -22.9063
658
root 1.38915 17.9442 36.3703 1.91105 2.22667 6.17981
lowerback 5.00381 -6.49161 -16.6597
upperback -1.77025 -9.6793 4.22834
thorax -1.23859 -4.6552 14.3072
lowerneck -18.709 1.89012 4.93481
upperneck 26.2045 2.64245 -5.40794
head 11.8316 0.956482 -2.45086
rclavicle 4.73356e-014 -1.27222e-014
rhumerus -53.731 -19.8576 -41.2123
rradius 29.7518
rwrist 0.113337
rhand -11.317 -0.795288
rfingers 7.12502
rthumb 14.7151 -30.253
lclavicle 4.73356e-014 -1.27222e-014
lhumerus -11.5003 -11.7552 82.3907
lradius 51.2366
lwrist 11.6947
lhand -17.5475 -9.3471
lfingers 7.12502
lthumb 8.70704 20.4533
rfemur -25.1333 -6.58646 16.9136
rtibia 36.6238
rfoot -3.14514 -14.6488
rtoes 9.53425
lfemur 8.24093 -1.35152 -24.6453
ltibia 25.7205
lfoot -2.33958 10.9894
ltoes -22.9819
659
root 1.36117 17.9592 36.4561 2.04788 1.97187 6.6701
lowerback 4.71629 -6.26328 -16.8742
upperback -1.84492 -9.3458 3.98319
thorax -1.29165 -4.46954 14.1348
lowerneck -18.835 1.68066 4.56581
upperneck 26.3995 2.39588 -5.17709
head 11.9086 0.836841 -2.34356
rclavicle 7.95139e-015 1.82882e-014
rhumerus -54.5499 -20.4104 -40.7602
rradius 29.2319
rwrist -0.143817
rhand -11.4485 -0.635696
rfingers 7.12502
rthumb 14.5884 -30.1026
lclavicle 7.95139e-015 1.82882e-014
lhumerus -11.9168 -12.563 82.9767
lradius 51.2946
lwrist 11.5823
lhand -17.1326 -9.38818
lfingers 7.12502
lthumb 9.10744 20.3952
rfemur -25.0276 -6.44944 16.4798
rtibia 36.7192
rfoot -3.51847 -14.6503
rtoes 9.57847
lfemur 7.93079 -1.11975 -25.0065
ltibia 26.2817
lfoot -1.47397 10.4469
ltoes -23.0538
